<?xml version="1.0" encoding="UTF-8"?>
<svg id="Layer_1" xmlns="http://www.w3.org/2000/svg" version="1.1" viewBox="0 0 203 30.43">
  <!-- Generator: Adobe Illustrator 30.5.1, SVG Export Plug-In . SVG Version: 2.1.4 Build 3)  -->
  <defs>
    <style>
      .st0 {
        fill: #ff0;
      }
    </style>
  </defs>
  <g>
    <path class="st0" d="M39.12.8c-1.27,0-2.34,1.07-2.34,2.34v24.23c0,1.25,1.09,2.34,2.34,2.34,1.31,0,2.34-1.03,2.34-2.34V3.14c0-1.31-1.03-2.34-2.34-2.34Z"/>
    <path class="st0" d="M58.7,12.32c-6-1.39-6-3.21-6-4.08,0-1.5,1.66-3.05,4.45-3.05s4.43.41,5.93,1.02c.88.36,1.17.48,1.56.48,1.25,0,2.34-1.09,2.34-2.34,0-.95-.58-1.8-1.48-2.16-2.54-1.01-4.49-1.68-8.35-1.68-5.93,0-9.13,3.88-9.13,7.53,0,4.57,2.89,7.23,9.67,8.9,5.57,1.38,6.32,3.19,6.32,4.79,0,2.28-2.3,3.75-5.85,3.75-2.66,0-5.12-.62-7.35-1.88-.35-.18-.72-.27-1.09-.27-1.4,0-2.34,1.21-2.34,2.34,0,.81.44,1.57,1.21,2.05,2.92,1.62,6.14,2.44,9.57,2.44,7.77,0,10.53-4.36,10.53-8.43,0-4.84-3.17-7.83-9.99-9.4Z"/>
    <path class="st0" d="M96.13.8c-1.27,0-2.34,1.07-2.34,2.34v8.9h-14.55V3.14c0-1.31-1.03-2.34-2.34-2.34s-2.34,1.07-2.34,2.34v24.23c0,1.25,1.09,2.34,2.34,2.34,1.31,0,2.34-1.03,2.34-2.34v-10.65h14.55v10.65c0,1.25,1.09,2.34,2.34,2.34,1.31,0,2.34-1.03,2.34-2.34V3.14c0-1.31-1.03-2.34-2.34-2.34Z"/>
    <path class="st0" d="M117.86.35c-8.32,0-14.13,6.2-14.13,15.08,0,8.4,6.07,14.73,14.13,14.73s13.93-5.98,13.93-14.88S125.81.35,117.86.35ZM117.86,25.48c-5.39,0-9.45-4.32-9.45-10.05,0-6.22,3.8-10.4,9.45-10.4,5.27,0,9.25,4.4,9.25,10.25,0,6.2-3.63,10.2-9.25,10.2Z"/>
    <path class="st0" d="M149.84.35c-8.32,0-14.13,6.2-14.13,15.08,0,8.4,6.07,14.73,14.13,14.73s13.93-5.98,13.93-14.88S157.78.35,149.84.35ZM149.84,25.48c-5.39,0-9.45-4.32-9.45-10.05,0-6.22,3.8-10.4,9.45-10.4,5.27,0,9.25,4.4,9.25,10.25,0,6.2-3.63,10.2-9.25,10.2Z"/>
    <path class="st0" d="M202.43,23.31l-.21-1.38c-.59-3.88-1.96-12.95-3.34-19.71-.18-1.09-1.2-1.91-2.37-1.91s-1.76.64-2.11,1.23c-3.15,5.9-6.57,13.46-9.13,19.3l-3.22-6.61c-2.05-4.22-4.08-8.37-5.67-11.61-.24-.53-.66-1.16-.95-1.44-.42-.52-1.04-.81-1.75-.81-1.15,0-2.19.86-2.37,1.95-1.28,7.32-2.77,19.24-3.26,23.56l-.16,1.56c0,1.34,1.01,2.39,2.29,2.39s2.29-.94,2.38-2.07c.47-4.27,1.39-11.41,2.31-17.73,1.15,2.41,2.38,5,3.61,7.57,1.67,3.51,3.33,6.99,4.74,9.93.36.82,1.23,1.35,2.2,1.35s1.72-.56,2.11-1.52c2.09-5.05,5.03-11.56,7.96-17.6,1.09,6.14,2.19,13.03,2.85,18.04.18,1.15,1.18,2.03,2.33,2.03,1.31,0,2.34-1.03,2.34-2.34,0-.28-.04-.69-.56-4.17Z"/>
  </g>
  <g>
    <path class="st0" d="M22.5,25.31H5.12v-10.02h7.54v-5.12H0v17.29c0,1.64,1.33,2.97,2.97,2.97h21.06c1.98,0,3.58-1.6,3.58-3.58v-1.34h0v-7.92h-5.12v7.73Z"/>
    <rect class="st0" x="14.92" y=".35" width="5.23" height="14.94"/>
    <path class="st0" d="M22.38,1.28v14.02h5.23V4.87c0-1.98-1.6-3.58-3.58-3.58h-1.65Z"/>
    <rect class="st0" x="7.46" y="0" width="5.23" height="7.94"/>
    <rect class="st0" x="0" width="5.23" height="7.92"/>
  </g>
</svg>